<?xml version="1.0" standalone="no"?>
<!DOCTYPE svg PUBLIC "-//W3C//DTD SVG 20010904//EN"
 "http://www.w3.org/TR/2001/REC-SVG-20010904/DTD/svg10.dtd">
<svg version="1.0" xmlns="http://www.w3.org/2000/svg"
 width="500.000000pt" height="500.000000pt" viewBox="0 0 500.000000 500.000000"
 preserveAspectRatio="xMidYMid meet">

<g transform="translate(0.000000,500.000000) scale(0.100000,-0.100000)"
fill="#000000" stroke="none">
<path d="M2297 2594 c-9 -10 2 -24 19 -24 8 0 14 7 14 15 0 15 -21 21 -33 9z"/>
<path d="M2460 2585 c0 -8 7 -15 15 -15 8 0 15 7 15 15 0 8 -7 15 -15 15 -8 0
-15 -7 -15 -15z"/>
<path d="M2827 2594 c-9 -10 2 -24 19 -24 8 0 14 7 14 15 0 15 -21 21 -33 9z"/>
<path d="M3107 2594 c-9 -10 2 -24 19 -24 8 0 14 7 14 15 0 15 -21 21 -33 9z"/>
<path d="M2080 2511 l0 -78 45 -1 c48 -1 65 14 65 61 0 30 -31 60 -54 51 -12
-5 -16 0 -16 20 0 19 -5 26 -20 26 -18 0 -20 -7 -20 -79z m68 -23 c-4 -46 -28
-49 -28 -4 0 26 4 36 16 36 11 0 14 -8 12 -32z"/>
<path d="M1860 2505 c0 -68 2 -75 20 -75 16 0 20 7 20 30 0 23 4 30 20 30 11
0 20 5 20 10 0 6 -9 10 -20 10 -28 0 -27 38 2 42 12 2 23 9 26 16 2 8 -10 12
-42 12 l-46 0 0 -75z"/>
<path d="M2697 2573 c-4 -3 -7 -37 -7 -75 l0 -69 46 3 c34 2 50 9 61 24 12 19
12 24 -2 37 -9 10 -11 18 -5 22 20 12 10 45 -16 55 -29 11 -68 13 -77 3z m63
-38 c0 -8 -7 -15 -15 -15 -8 0 -15 7 -15 15 0 8 7 15 15 15 8 0 15 -7 15 -15z
m-6 -41 c23 -9 20 -34 -4 -34 -13 0 -20 7 -20 20 0 22 1 23 24 14z"/>
<path d="M1983 2543 c-22 -8 -14 -23 12 -23 14 0 25 -4 25 -10 0 -5 -8 -10
-19 -10 -24 0 -44 -24 -39 -47 3 -14 13 -18 52 -19 l48 -1 -5 50 c-5 59 -29
79 -74 60z m37 -78 c0 -8 -4 -15 -9 -15 -13 0 -22 16 -14 24 11 11 23 6 23 -9z"/>
<path d="M2261 2541 c-7 -5 -22 -6 -32 -4 -17 5 -19 -1 -19 -51 0 -43 3 -56
15 -56 9 0 15 9 15 24 0 35 10 56 26 56 8 0 14 9 14 20 0 23 0 23 -19 11z"/>
<path d="M2370 2530 c-40 -40 -19 -100 36 -100 24 0 34 4 32 12 -3 7 -12 13
-22 13 -21 0 -35 22 -29 46 3 12 14 19 29 19 27 0 32 15 8 24 -25 9 -33 7 -54
-14z"/>
<path d="M2530 2530 c-39 -39 -16 -100 39 -100 36 0 51 17 51 56 0 23 -7 38
-22 48 -30 21 -44 20 -68 -4z m58 -35 c3 -26 -13 -50 -27 -41 -6 4 -11 21 -11
37 0 24 4 30 18 27 9 -2 18 -12 20 -23z"/>
<path d="M2903 2543 c-22 -8 -14 -23 12 -23 14 0 25 -4 25 -10 0 -5 -8 -10
-19 -10 -24 0 -44 -24 -39 -47 3 -14 13 -18 52 -19 l48 -1 -5 50 c-5 59 -29
79 -74 60z m37 -78 c0 -8 -4 -15 -9 -15 -13 0 -22 16 -14 24 11 11 23 6 23 -9z"/>
<path d="M3012 2534 c-17 -12 -20 -19 -12 -34 5 -10 19 -22 30 -25 27 -9 25
-26 -2 -23 -13 2 -25 -1 -28 -7 -3 -6 11 -11 32 -13 28 -2 39 1 47 17 12 21 9
25 -34 56 -19 14 -19 14 8 15 30 0 36 14 11 24 -22 9 -27 8 -52 -10z"/>
<path d="M2300 2485 c0 -42 3 -55 15 -55 12 0 15 13 15 55 0 42 -3 55 -15 55
-12 0 -15 -13 -15 -55z"/>
<path d="M2460 2485 c0 -42 3 -55 15 -55 12 0 15 13 15 55 0 42 -3 55 -15 55
-12 0 -15 -13 -15 -55z"/>
<path d="M2830 2485 c0 -42 3 -55 15 -55 12 0 15 13 15 55 0 42 -3 55 -15 55
-12 0 -15 -13 -15 -55z"/>
<path d="M3110 2485 c0 -42 3 -55 15 -55 12 0 15 13 15 55 0 42 -3 55 -15 55
-12 0 -15 -13 -15 -55z"/>
</g>
</svg>
